<svg width="77" height="21" viewBox="0 0 77 21" fill="none" xmlns="http://www.w3.org/2000/svg">
<g clip-path="url(#clip0_78_1178)">
<path fill-rule="evenodd" clip-rule="evenodd" d="M43.0853 16.1309C42.4235 16.1309 41.85 16.0275 41.3646 15.8204C40.8792 15.6134 40.5042 15.2658 40.2395 14.7779C39.9895 14.2751 39.8644 13.6022 39.8644 12.7594V6.32663H38.1784C37.9331 5.70248 37.568 5.16986 37.0782 4.75172H39.8644L40.1071 1.979H41.7176V4.75172H44.9606V6.32663H40.9256L41.7176 7.22355V12.7594C41.7176 13.4543 41.8572 13.9276 42.1368 14.179C42.4162 14.4156 42.9089 14.5339 43.6149 14.5339H45.4393C45.8908 15.1594 46.443 15.6805 47.0954 16.0894L47.0981 16.0911L47.1011 16.0929C47.122 16.1057 47.1428 16.1184 47.1638 16.1309H43.0853Z" fill="white"/>
<path fill-rule="evenodd" clip-rule="evenodd" d="M47.5292 15.3819C48.3411 15.8813 49.2712 16.1311 50.3193 16.1311C51.1902 16.1311 51.9505 15.9797 52.6 15.6771C53.2643 15.3592 53.8179 14.9278 54.2607 14.3829C54.697 13.8461 55.0044 13.243 55.1829 12.574C55.1855 12.564 55.1882 12.554 55.1908 12.5439H55.1734H53.3528C53.1314 13.1494 52.7624 13.6337 52.2457 13.997C51.7438 14.345 51.1016 14.5191 50.3193 14.5191C49.6992 14.5191 49.1161 14.3602 48.5699 14.0424C48.0385 13.7245 47.6029 13.2478 47.2635 12.6121C46.9761 12.0494 46.8159 11.3683 46.7828 10.5687H54.8479C54.844 10.461 54.842 10.3525 54.842 10.243C54.842 9.33494 54.9698 8.49342 55.2343 7.72644C55.1409 7.43042 55.0231 7.14427 54.8807 6.868C54.4821 6.05066 53.8991 5.39226 53.1314 4.89278C52.3786 4.3933 51.4559 4.14355 50.3635 4.14355C49.3006 4.14355 48.3559 4.3933 47.5292 4.89278C46.7172 5.39226 46.0825 6.08851 45.6249 6.98152C45.182 7.87453 44.9606 8.92646 44.9606 10.1373C44.9606 11.333 45.1894 12.385 45.647 13.2932C46.1046 14.1862 46.732 14.8824 47.5292 15.3819ZM46.7763 9.84186V9.61514C46.7763 8.76755 46.9386 8.06373 47.2635 7.5037C47.5883 6.92854 48.0163 6.49717 48.5478 6.20959C49.094 5.90687 49.6844 5.75552 50.3193 5.75552C51.264 5.75552 52.0464 6.05066 52.6664 6.64096C53.3012 7.23126 53.6407 8.04859 53.6851 9.09296H47.8426L46.7763 9.84186Z" fill="white"/>
<path d="M61.0155 16.1089C60.9858 16.1089 60.9563 16.1086 60.9268 16.1083C60.9235 16.1083 60.9204 16.1083 60.9171 16.1082C60.2381 16.0982 59.6029 15.9845 59.0115 15.767C58.7201 15.6598 58.4393 15.5276 58.1691 15.3701C57.339 14.8776 56.6868 14.1909 56.2124 13.3104C56.0436 12.9918 55.9048 12.6563 55.7961 12.3037C55.6088 11.6961 55.5105 11.0381 55.5014 10.3296C55.5013 10.3269 55.5014 10.3242 55.5013 10.3215C55.501 10.2881 55.5008 10.2544 55.5008 10.2208C55.5008 9.28089 55.6477 8.43811 55.9416 7.69245C56.0095 7.52037 56.085 7.35346 56.1686 7.19172C56.1827 7.16442 56.1978 7.13578 56.2124 7.10877C56.6719 6.25566 57.2984 5.58466 58.0919 5.09576C58.1171 5.08026 58.1437 5.06418 58.1691 5.04904C59.0142 4.54158 59.963 4.28784 61.0155 4.28784C61.055 4.28784 61.0945 4.28815 61.1336 4.28877C61.1357 4.2888 61.1379 4.28879 61.14 4.28882C61.8494 4.30061 62.4946 4.41371 63.0757 4.62804C63.5422 4.80011 63.9673 5.03746 64.351 5.3401C64.3771 5.36026 64.4029 5.38067 64.4284 5.40124C64.4302 5.40257 64.4318 5.40384 64.4334 5.40517C64.896 5.77848 65.2661 6.21945 65.5439 6.72801C65.7717 7.14524 65.9374 7.60799 66.041 8.11625H64.1286C64.124 8.09435 64.1191 8.07261 64.114 8.05102C63.9956 7.54386 63.7615 7.12091 63.4119 6.78225C63.2995 6.67342 63.1752 6.57332 63.0391 6.4819C62.497 6.11809 61.8637 5.92479 61.1393 5.90205C61.091 5.90053 61.0424 5.89981 60.9932 5.89981C60.3558 5.89981 59.7628 6.06398 59.2143 6.39235C59.1813 6.41116 59.1489 6.43064 59.1168 6.45064C58.7745 6.66377 58.4775 6.94397 58.2261 7.29146C58.1082 7.45457 58.0002 7.63249 57.9024 7.8252C57.5762 8.467 57.4132 9.25806 57.4132 10.1984C57.4132 10.8999 57.5095 11.5268 57.7023 12.079C57.895 12.6163 58.1544 13.0641 58.4805 13.4223C58.8067 13.7805 59.1846 14.0566 59.6145 14.2506C59.7188 14.2926 59.8238 14.3297 59.9297 14.3618C60.2473 14.4582 60.5722 14.5104 60.9045 14.5183C60.9341 14.5189 60.9637 14.5194 60.9932 14.5194C61.5269 14.5194 62.0087 14.4372 62.4386 14.2731C62.8685 14.094 63.2318 13.8327 63.5283 13.4895C63.8247 13.1462 64.0248 12.7431 64.1286 12.2805H66.041C65.8038 13.4148 65.233 14.3402 64.3287 15.0567C63.7424 15.5191 63.0626 15.8292 62.2893 15.9867C61.8896 16.0682 61.465 16.1089 61.0155 16.1089Z" fill="white"/>
<path d="M66.8645 16.1499V0H68.765V6.75154C69.1422 6.07863 69.6701 5.54778 70.349 5.15899C71.0428 4.7702 71.7971 4.5758 72.6115 4.5758C73.4865 4.5758 74.2482 4.75525 74.8969 5.11413C75.5455 5.45807 76.0433 5.98891 76.3902 6.70669C76.7371 7.42446 76.9106 8.32915 76.9106 9.42076V16.1499H75.0326V9.62264C75.0326 8.48617 74.7913 7.63381 74.3086 7.06558C73.8258 6.48238 73.1244 6.19079 72.2043 6.19079C71.5556 6.19079 70.9674 6.34781 70.4395 6.66183C69.9266 6.97585 69.5193 7.42446 69.2176 8.00765C68.9159 8.59084 68.765 9.30861 68.765 10.161V16.1499H66.8645Z" fill="white"/>
<path fill-rule="evenodd" clip-rule="evenodd" d="M1.55227 7.26156L0 16.1481H2.6806L3.73051 10.0959C3.86454 9.38833 4.08048 8.79364 4.37832 8.31188C4.69106 7.81505 5.05592 7.43867 5.47291 7.18273C5.90478 6.92679 6.35899 6.79882 6.83554 6.79882C7.56526 6.79882 8.08649 7.05477 8.39923 7.56664C8.71196 8.07852 8.78643 8.81623 8.62261 9.77976L7.52803 16.1481H10.1863L11.3032 9.75718C11.4521 9.12486 11.6755 8.59041 11.9734 8.1538C12.0419 8.05813 12.1126 7.96752 12.1854 7.88197C12.4248 7.60069 12.6874 7.37407 12.9732 7.2022C12.9971 7.18778 13.0213 7.1738 13.0456 7.16015C13.4477 6.91927 13.8796 6.79882 14.3413 6.79882C14.364 6.79882 14.3866 6.79912 14.409 6.79961C14.9515 6.81171 15.3744 6.97044 15.678 7.27576C15.7629 7.36125 15.8386 7.45818 15.905 7.56664C16.2176 8.07852 16.2921 8.81623 16.1283 9.77976L15.0114 16.1481H17.6919L18.8313 9.50878C18.8599 9.35991 18.8843 9.21425 18.9045 9.07191C19.0314 8.17785 18.9921 7.41262 18.7866 6.77624C18.5483 6.02348 18.1313 5.4589 17.5357 5.08253C16.9399 4.69108 16.1804 4.49536 15.2571 4.49536C14.4827 4.49536 13.7381 4.68356 13.0232 5.05994C12.3085 5.42126 11.7053 5.92562 11.2138 6.573C11.05 6.10628 10.8118 5.72237 10.499 5.42126C10.2012 5.12016 9.82889 4.89433 9.38211 4.74378C8.95024 4.57817 8.4588 4.49536 7.90778 4.49536C7.16318 4.49536 6.47813 4.6685 5.85265 5.01478C5.24207 5.36105 4.72084 5.82023 4.28897 6.39233L4.33364 4.76636H1.98811L1.7982 5.85358L2.30567 6.73111L1.55227 7.26156Z" fill="white"/>
<path fill-rule="evenodd" clip-rule="evenodd" d="M36.0672 5.02949C35.4847 4.67341 34.753 4.49536 33.8724 4.49536C33.098 4.49536 32.3534 4.68356 31.6385 5.05994C30.9238 5.42126 30.3206 5.92562 29.8291 6.573C29.6653 6.10628 29.4271 5.72237 29.1144 5.42126C28.8165 5.12016 28.4442 4.89433 27.9974 4.74378C27.5656 4.57817 27.0741 4.49536 26.5231 4.49536C25.7785 4.49536 25.0934 4.6685 24.4679 5.01478C23.8574 5.36105 23.3361 5.82023 22.9042 6.39233L22.9489 4.76636H20.6034L18.6153 16.1481H21.2959L22.3458 10.0959C22.4799 9.38833 22.6958 8.79364 22.9936 8.31188C23.3063 7.81505 23.6712 7.43867 24.0882 7.18273C24.52 6.92679 24.9743 6.79882 25.4509 6.79882C26.1805 6.79882 26.7018 7.05477 27.0145 7.56664C27.0776 7.66981 27.131 7.78225 27.1746 7.90377C27.1851 7.93297 27.195 7.9627 27.2045 7.99296C27.277 8.22725 27.3162 8.4933 27.3217 8.79109C27.3273 9.08889 27.2993 9.41847 27.2379 9.77976L26.1433 16.1481H28.8016L29.9185 9.75718C30.0674 9.12486 30.2908 8.59041 30.5887 8.15379C30.6961 8.00371 30.8089 7.86608 30.927 7.74091C31.1309 7.52467 31.3506 7.34556 31.586 7.20365L31.5899 7.20138C31.6134 7.18726 31.6371 7.17352 31.6609 7.16015C31.8117 7.06982 31.9667 6.99635 32.126 6.9399C32.1391 6.93521 32.1524 6.93062 32.1658 6.92617C32.2722 6.89042 32.3807 6.86219 32.491 6.84149C32.5048 6.83891 32.5186 6.83643 32.5324 6.83409C32.6709 6.81056 32.8122 6.79882 32.9565 6.79882C33.6863 6.79882 34.2075 7.05477 34.5203 7.56664C34.6375 7.75855 34.7212 7.98227 34.7715 8.23768C34.7736 8.24804 34.7755 8.25845 34.7775 8.26892C34.7834 8.30151 34.7889 8.3346 34.7939 8.36821C34.8525 8.76728 34.8358 9.23781 34.7436 9.77976L33.6267 16.1481H35.5564C35.1595 15.7422 34.9144 15.1841 34.9144 14.5682C34.9144 13.3864 35.8167 12.4175 36.9629 12.3274L37.4466 9.50878C37.6551 8.42479 37.6402 7.51395 37.4019 6.77624C37.334 6.56194 37.2517 6.36289 37.1549 6.17909C36.9117 5.71728 36.5771 5.35175 36.151 5.08253C36.1233 5.06443 36.0955 5.04675 36.0672 5.02949Z" fill="white"/>
<path d="M35.4084 14.5682C35.4084 13.6931 36.0446 12.9682 36.8749 12.8402C36.9606 12.8269 37.0484 12.8201 37.1377 12.8201C38.0928 12.8201 38.867 13.6028 38.867 14.5682C38.867 15.5338 38.0928 16.3164 37.1377 16.3164C36.8397 16.3164 36.5593 16.2402 36.3145 16.106C35.7748 15.8102 35.4084 15.2324 35.4084 14.5682Z" fill="#F22D36"/>
<path d="M0.600791 20.404V18.7044H0V18.5898H1.3228V18.7044H0.72464V20.404H0.600791Z" fill="white"/>
<path d="M1.81529 20.4335C1.44374 20.4335 1.20923 20.1458 1.20923 19.7462C1.20923 19.3519 1.44902 19.0642 1.81529 19.0642C2.18682 19.0642 2.37918 19.3359 2.37918 19.7142C2.37918 19.7275 2.37918 19.7382 2.37918 19.7541H1.3278C1.33044 20.0791 1.51226 20.3216 1.81529 20.3216C2.01555 20.3216 2.15521 20.2336 2.25007 20.0578L2.3502 20.1111C2.23426 20.3296 2.05771 20.4335 1.81529 20.4335ZM1.33307 19.6476H2.2606C2.24216 19.3705 2.0946 19.1761 1.81529 19.1761C1.54124 19.1761 1.36733 19.3705 1.33307 19.6476Z" fill="white"/>
<path d="M3.21309 20.4335C2.83364 20.4335 2.58594 20.1377 2.58594 19.7462C2.58594 19.3546 2.831 19.0642 3.20781 19.0642C3.46078 19.0642 3.65051 19.1921 3.75064 19.4025L3.64786 19.4558C3.56619 19.2827 3.41598 19.1761 3.20781 19.1761C2.89687 19.1761 2.70716 19.4212 2.70716 19.7462C2.70716 20.0712 2.90215 20.3216 3.21309 20.3216C3.42126 20.3216 3.57145 20.2124 3.65577 20.0366L3.75855 20.0898C3.65841 20.3029 3.46605 20.4335 3.21309 20.4335Z" fill="white"/>
<path d="M4.00555 20.4041V19.0962H4.12676C4.12676 19.1947 4.12676 19.264 4.12413 19.3599H4.13731C4.22426 19.1734 4.3771 19.0642 4.58263 19.0642C4.91464 19.0642 5.06222 19.2906 5.06222 19.6183V20.4041H4.941V19.6369C4.941 19.3492 4.81452 19.1734 4.54837 19.1734C4.2796 19.1734 4.12676 19.3866 4.12676 19.6476V20.4041H4.00555Z" fill="white"/>
<path d="M5.98194 20.4335C5.60249 20.4335 5.3548 20.1377 5.3548 19.7489C5.3548 19.3572 5.59986 19.0642 5.98194 19.0642C6.36139 19.0642 6.60382 19.3572 6.60382 19.7462C6.60382 20.1377 6.36139 20.4335 5.98194 20.4335ZM5.98194 20.3216C6.29024 20.3216 6.4826 20.0685 6.4826 19.7462C6.4826 19.4265 6.29024 19.1761 5.98194 19.1761C5.67101 19.1761 5.47601 19.4265 5.47601 19.7489C5.47601 20.0685 5.67364 20.3216 5.98194 20.3216Z" fill="white"/>
<path d="M6.90308 20.404V18.4807H7.02429V20.404H6.90308Z" fill="white"/>
<path d="M7.95306 20.4335C7.57362 20.4335 7.32593 20.1377 7.32593 19.7489C7.32593 19.3572 7.57099 19.0642 7.95306 19.0642C8.33252 19.0642 8.57494 19.3572 8.57494 19.7462C8.57494 20.1377 8.33252 20.4335 7.95306 20.4335ZM7.95306 20.3216C8.26137 20.3216 8.45373 20.0685 8.45373 19.7462C8.45373 19.4265 8.26137 19.1761 7.95306 19.1761C7.64213 19.1761 7.44714 19.4265 7.44714 19.7489C7.44714 20.0685 7.64477 20.3216 7.95306 20.3216Z" fill="white"/>
<path d="M9.39594 20.9955C9.14297 20.9955 8.95852 20.8864 8.85048 20.6838L8.95852 20.6306C9.04811 20.7931 9.19567 20.8836 9.39594 20.8836C9.69633 20.8836 9.88605 20.6758 9.88605 20.3721C9.88605 20.2736 9.88605 20.2044 9.88605 20.1057H9.87288C9.77538 20.3109 9.59883 20.4228 9.37486 20.4228C9.01913 20.4228 8.80042 20.1351 8.80042 19.7489C8.80042 19.3572 9.02439 19.0642 9.38803 19.0642C9.61201 19.0642 9.78065 19.1707 9.87551 19.3733H9.88869C9.88605 19.2746 9.88605 19.2054 9.88605 19.0962H10.0046V20.3669C10.0046 20.7424 9.76747 20.9955 9.39594 20.9955ZM9.39594 20.3109C9.70424 20.3109 9.8966 20.0818 9.8966 19.7462C9.8966 19.4079 9.70424 19.1761 9.39594 19.1761C9.09817 19.1841 8.92162 19.4238 8.92162 19.7515C8.92162 20.0712 9.10081 20.3109 9.39594 20.3109Z" fill="white"/>
<path d="M10.3796 20.404V19.0961H10.5008V20.404H10.3796ZM10.4402 18.875C10.377 18.875 10.3322 18.8297 10.3322 18.7657C10.3322 18.7045 10.377 18.6592 10.4402 18.6592C10.5034 18.6592 10.5482 18.7045 10.5482 18.7657C10.5482 18.8297 10.5034 18.875 10.4402 18.875Z" fill="white"/>
<path d="M11.3873 20.4335C11.0288 20.4335 10.8102 20.1458 10.8102 19.7569C10.8102 19.3599 11.0368 19.0642 11.3977 19.0642C11.6244 19.0642 11.7877 19.1707 11.8827 19.3733H11.8958C11.8931 19.2746 11.8931 19.2054 11.8931 19.0962H12.0144V20.4041H11.8931C11.8931 20.2976 11.8931 20.2257 11.8958 20.1244L11.8827 20.1218C11.7851 20.3242 11.6112 20.4335 11.3873 20.4335ZM11.4057 20.3242C11.714 20.3242 11.9064 20.0924 11.9064 19.7515C11.9064 19.4105 11.714 19.1788 11.4057 19.1788C11.1079 19.1788 10.9314 19.4265 10.9314 19.7569C10.9314 20.0818 11.1106 20.3242 11.4057 20.3242Z" fill="white"/>
<path d="M13.4851 20.4335C13.1136 20.4335 12.8792 20.1458 12.8792 19.7462C12.8792 19.3519 13.119 19.0642 13.4851 19.0642C13.8568 19.0642 14.049 19.3359 14.049 19.7142C14.049 19.7275 14.049 19.7382 14.049 19.7541H12.9977C13.0003 20.0791 13.1821 20.3216 13.4851 20.3216C13.6855 20.3216 13.8251 20.2336 13.92 20.0578L14.0201 20.1111C13.9042 20.3296 13.7277 20.4335 13.4851 20.4335ZM13.003 19.6476H13.9305C13.9121 19.3705 13.7645 19.1761 13.4851 19.1761C13.2112 19.1761 13.0373 19.3705 13.003 19.6476Z" fill="white"/>
<path d="M14.8932 20.404V19.0961H15.0143V20.404H14.8932ZM14.9537 18.875C14.8904 18.875 14.8456 18.8297 14.8456 18.7657C14.8456 18.7045 14.8904 18.6592 14.9537 18.6592C15.0169 18.6592 15.0617 18.7045 15.0617 18.7657C15.0617 18.8297 15.0169 18.875 14.9537 18.875Z" fill="white"/>
<path d="M15.3898 20.4041V19.0962H15.511C15.511 19.1947 15.511 19.264 15.5083 19.3599H15.5216C15.6085 19.1734 15.7613 19.0642 15.9668 19.0642C16.2989 19.0642 16.4465 19.2906 16.4465 19.6183V20.4041H16.3252V19.6369C16.3252 19.3492 16.1987 19.1734 15.9326 19.1734C15.6638 19.1734 15.511 19.3866 15.511 19.6476V20.4041H15.3898Z" fill="white"/>
<path d="M17.3662 20.4335C16.9868 20.4335 16.739 20.1377 16.739 19.7489C16.739 19.3572 16.9842 19.0642 17.3662 19.0642C17.7457 19.0642 17.9881 19.3572 17.9881 19.7462C17.9881 20.1377 17.7457 20.4335 17.3662 20.4335ZM17.3662 20.3216C17.6744 20.3216 17.8668 20.0685 17.8668 19.7462C17.8668 19.4265 17.6744 19.1761 17.3662 19.1761C17.0553 19.1761 16.8603 19.4265 16.8603 19.7489C16.8603 20.0685 17.0579 20.3216 17.3662 20.3216Z" fill="white"/>
<path d="M18.6528 20.4414L18.0784 19.1015V19.0962H18.2102L18.6871 20.2443L19.1667 19.0962H19.2958V19.1015L18.7187 20.4414H18.6528Z" fill="white"/>
<path d="M19.9615 20.4335C19.6031 20.4335 19.3844 20.1458 19.3844 19.7569C19.3844 19.3599 19.6109 19.0642 19.972 19.0642C20.1986 19.0642 20.362 19.1707 20.4569 19.3733H20.47C20.4674 19.2746 20.4674 19.2054 20.4674 19.0962H20.5886V20.4041H20.4674C20.4674 20.2976 20.4674 20.2257 20.47 20.1244L20.4569 20.1218C20.3593 20.3242 20.1854 20.4335 19.9615 20.4335ZM19.9798 20.3242C20.2882 20.3242 20.4806 20.0924 20.4806 19.7515C20.4806 19.4105 20.2882 19.1788 19.9798 19.1788C19.6822 19.1788 19.5056 19.4265 19.5056 19.7569C19.5056 20.0818 19.6848 20.3242 19.9798 20.3242Z" fill="white"/>
<path d="M21.256 20.7984V20.7931L21.4484 20.4307C21.1084 20.3989 20.8897 20.1164 20.8897 19.7462C20.8897 19.3546 21.1348 19.0642 21.5116 19.0642C21.7646 19.0642 21.9543 19.1921 22.0544 19.4025L21.9517 19.4558C21.8699 19.2827 21.7197 19.1761 21.5116 19.1761C21.2006 19.1761 21.011 19.4212 21.011 19.7462C21.011 20.0712 21.206 20.3216 21.5169 20.3216C21.7251 20.3216 21.8753 20.2124 21.9596 20.0366L22.0623 20.0898C21.9675 20.2896 21.791 20.4201 21.559 20.4335L21.393 20.7984H21.256Z" fill="white"/>
<path d="M22.8023 20.4334C22.444 20.4334 22.2253 20.1457 22.2253 19.7568C22.2253 19.3598 22.4519 19.0642 22.8129 19.0642C23.0395 19.0642 23.2029 19.1707 23.2977 19.3732H23.311C23.3083 19.2746 23.3083 19.2053 23.3083 19.0961H23.4295V20.4041H23.3083C23.3083 20.2975 23.3083 20.2256 23.311 20.1244L23.2977 20.1217C23.2003 20.3242 23.0264 20.4334 22.8023 20.4334ZM22.8208 20.3242C23.1292 20.3242 23.3216 20.0924 23.3216 19.7514C23.3216 19.4105 23.1292 19.1787 22.8208 19.1787C22.5231 19.1787 22.3465 19.4264 22.3465 19.7568C22.3465 20.0817 22.5257 20.3242 22.8208 20.3242ZM22.481 18.931C22.4862 18.7578 22.5231 18.582 22.7049 18.582C22.9131 18.582 22.921 18.843 23.0448 18.843C23.1423 18.843 23.166 18.7125 23.1686 18.5927H23.2688C23.2635 18.7658 23.2266 18.9443 23.0448 18.9443C22.8419 18.9443 22.834 18.6832 22.7075 18.6832C22.6101 18.6832 22.5836 18.8111 22.581 18.931H22.481Z" fill="white"/>
<path d="M24.3578 20.4335C23.9784 20.4335 23.7307 20.1377 23.7307 19.7489C23.7307 19.3572 23.9757 19.0642 24.3578 19.0642C24.7373 19.0642 24.9797 19.3572 24.9797 19.7462C24.9797 20.1377 24.7373 20.4335 24.3578 20.4335ZM24.3578 20.3216C24.6661 20.3216 24.8585 20.0685 24.8585 19.7462C24.8585 19.4265 24.6661 19.1761 24.3578 19.1761C24.0469 19.1761 23.8519 19.4265 23.8519 19.7489C23.8519 20.0685 24.0496 20.3216 24.3578 20.3216Z" fill="white"/>
<path d="M26.8517 20.9662V20.4174C26.8517 20.3056 26.8517 20.231 26.8544 20.1218H26.8412C26.7437 20.3322 26.5698 20.4335 26.3458 20.4335C25.9874 20.4335 25.7687 20.1431 25.7687 19.7541C25.7687 19.3599 25.9927 19.0642 26.3563 19.0642C26.5777 19.0642 26.7463 19.1681 26.8412 19.3733H26.8544C26.8517 19.2746 26.8517 19.2054 26.8517 19.0962H26.9729V20.9662H26.8517ZM26.3642 20.3242C26.6726 20.3242 26.8649 20.0924 26.8649 19.7515C26.8649 19.4105 26.6726 19.1761 26.3642 19.1761C26.0665 19.1841 25.8899 19.4265 25.8899 19.7541C25.8899 20.0818 26.0692 20.3242 26.3642 20.3242Z" fill="white"/>
<path d="M27.8697 20.4388C27.5482 20.4388 27.34 20.2257 27.34 19.9007V19.0962H27.4612V19.8953C27.4612 20.1538 27.6193 20.3268 27.8697 20.3268C28.1253 20.3268 28.2807 20.1538 28.2807 19.8953V19.0962H28.4019V19.898C28.4019 20.2257 28.1938 20.4388 27.8697 20.4388Z" fill="white"/>
<path d="M29.3007 20.4335C28.9291 20.4335 28.6946 20.1458 28.6946 19.7462C28.6946 19.3519 28.9344 19.0642 29.3007 19.0642C29.6722 19.0642 29.8645 19.3359 29.8645 19.7142C29.8645 19.7275 29.8645 19.7382 29.8645 19.7541H28.8131C28.8157 20.0791 28.9976 20.3216 29.3007 20.3216C29.5009 20.3216 29.6405 20.2336 29.7354 20.0578L29.8356 20.1111C29.7196 20.3296 29.5431 20.4335 29.3007 20.4335ZM28.8185 19.6476H29.7459C29.7276 19.3705 29.58 19.1761 29.3007 19.1761C29.0266 19.1761 28.8527 19.3705 28.8185 19.6476Z" fill="white"/>
<path d="M30.7086 20.9662V19.0962H30.8298C30.8298 19.2027 30.8298 19.2773 30.8272 19.3785H30.8403C30.9352 19.1788 31.117 19.0642 31.3357 19.0642C31.6915 19.0642 31.9128 19.3546 31.9128 19.7435C31.9128 20.1404 31.6862 20.4335 31.3252 20.4335C31.0986 20.4335 30.9326 20.3268 30.8403 20.1271H30.8272C30.8298 20.2283 30.8298 20.3109 30.8298 20.4174V20.9662H30.7086ZM31.3199 20.3216C31.615 20.3163 31.7916 20.0712 31.7916 19.7435C31.7916 19.4212 31.6124 19.1734 31.3199 19.1734C31.009 19.1734 30.8166 19.4079 30.8166 19.7489C30.8166 20.0898 31.0116 20.3216 31.3199 20.3216Z" fill="white"/>
<path d="M32.7827 20.4335C32.4033 20.4335 32.1556 20.1377 32.1556 19.7489C32.1556 19.3572 32.4007 19.0642 32.7827 19.0642C33.1622 19.0642 33.4046 19.3572 33.4046 19.7462C33.4046 20.1377 33.1622 20.4335 32.7827 20.4335ZM32.7827 20.3216C33.0911 20.3216 33.2834 20.0685 33.2834 19.7462C33.2834 19.4265 33.0911 19.1761 32.7827 19.1761C32.4718 19.1761 32.2768 19.4265 32.2768 19.7489C32.2768 20.0685 32.4745 20.3216 32.7827 20.3216Z" fill="white"/>
<path d="M33.792 20.4041V19.208H33.5707V19.0961H33.792V18.7258H33.9133V19.0961H34.2611V19.208H33.9133V20.4041H33.792Z" fill="white"/>
<path d="M34.9644 20.4335C34.5929 20.4335 34.3584 20.1458 34.3584 19.7462C34.3584 19.3519 34.5981 19.0642 34.9644 19.0642C35.3359 19.0642 35.5283 19.3359 35.5283 19.7142C35.5283 19.7275 35.5283 19.7382 35.5283 19.7541H34.4769C34.4796 20.0791 34.6614 20.3216 34.9644 20.3216C35.1647 20.3216 35.3044 20.2336 35.3992 20.0578L35.4994 20.1111C35.3834 20.3296 35.2068 20.4335 34.9644 20.4335ZM34.4822 19.6476H35.4098C35.3913 19.3705 35.2437 19.1761 34.9644 19.1761C34.6903 19.1761 34.5164 19.3705 34.4822 19.6476Z" fill="white"/>
<path d="M35.8063 20.4041V19.0962H35.9274C35.9274 19.1947 35.9274 19.264 35.9248 19.3599H35.938C36.025 19.1734 36.1778 19.0642 36.3833 19.0642C36.7154 19.0642 36.863 19.2906 36.863 19.6183V20.4041H36.7417V19.6369C36.7417 19.3492 36.6152 19.1734 36.3491 19.1734C36.0803 19.1734 35.9274 19.3866 35.9274 19.6476V20.4041H35.8063Z" fill="white"/>
<path d="M37.7826 20.4335C37.4033 20.4335 37.1555 20.1377 37.1555 19.7462C37.1555 19.3546 37.4005 19.0642 37.7774 19.0642C38.0304 19.0642 38.22 19.1921 38.3202 19.4025L38.2174 19.4558C38.1357 19.2827 37.9856 19.1761 37.7774 19.1761C37.4665 19.1761 37.2768 19.4212 37.2768 19.7462C37.2768 20.0712 37.4717 20.3216 37.7826 20.3216C37.9909 20.3216 38.1411 20.2124 38.2254 20.0366L38.3281 20.0898C38.228 20.3029 38.0356 20.4335 37.7826 20.4335Z" fill="white"/>
<path d="M38.5778 20.404V19.0961H38.6989V20.404H38.5778ZM38.6383 18.875C38.5751 18.875 38.5303 18.8297 38.5303 18.7657C38.5303 18.7045 38.5751 18.6592 38.6383 18.6592C38.7016 18.6592 38.7463 18.7045 38.7463 18.7657C38.7463 18.8297 38.7016 18.875 38.6383 18.875Z" fill="white"/>
<path d="M39.5854 20.4335C39.227 20.4335 39.0083 20.1458 39.0083 19.7569C39.0083 19.3599 39.2349 19.0642 39.5959 19.0642C39.8226 19.0642 39.9859 19.1707 40.0808 19.3733H40.0939C40.0913 19.2746 40.0913 19.2054 40.0913 19.0962H40.2125V20.4041H40.0913C40.0913 20.2976 40.0913 20.2257 40.0939 20.1244L40.0808 20.1218C39.9833 20.3242 39.8093 20.4335 39.5854 20.4335ZM39.6039 20.3242C39.9121 20.3242 40.1045 20.0924 40.1045 19.7515C40.1045 19.4105 39.9121 19.1788 39.6039 19.1788C39.3061 19.1788 39.1295 19.4265 39.1295 19.7569C39.1295 20.0818 39.3087 20.3242 39.6039 20.3242Z" fill="white"/>
<path d="M40.5978 20.404V18.4807H40.719V20.404H40.5978Z" fill="white"/>
<path d="M41.1099 20.404V19.0961H41.2311V20.404H41.1099ZM41.1704 18.875C41.1072 18.875 41.0624 18.8297 41.0624 18.7657C41.0624 18.7045 41.1072 18.6592 41.1704 18.6592C41.2337 18.6592 41.2785 18.7045 41.2785 18.7657C41.2785 18.8297 41.2337 18.875 41.1704 18.875Z" fill="white"/>
<path d="M41.4695 20.4041L41.4615 20.3882L42.2969 19.208H41.5327V19.0962H42.4971L42.5024 19.1121L41.6671 20.2922H42.5314V20.4041H41.4695Z" fill="white"/>
<path d="M43.2163 20.4335C42.8579 20.4335 42.6392 20.1458 42.6392 19.7569C42.6392 19.3599 42.8658 19.0642 43.2268 19.0642C43.4534 19.0642 43.6168 19.1707 43.7117 19.3733H43.7249C43.7223 19.2746 43.7222 19.2054 43.7222 19.0962H43.8434V20.4041H43.7222C43.7222 20.2976 43.7223 20.2257 43.7249 20.1244L43.7117 20.1218C43.6142 20.3242 43.4403 20.4335 43.2163 20.4335ZM43.2347 20.3242C43.543 20.3242 43.7354 20.0924 43.7354 19.7515C43.7354 19.4105 43.543 19.1788 43.2347 19.1788C42.9369 19.1788 42.7604 19.4265 42.7604 19.7569C42.7604 20.0818 42.9397 20.3242 43.2347 20.3242Z" fill="white"/>
<path d="M45.3353 20.4335C44.9558 20.4335 44.7082 20.1377 44.7082 19.7489C44.7082 19.3572 44.9532 19.0642 45.3353 19.0642C45.7147 19.0642 45.9572 19.3572 45.9572 19.7462C45.9572 20.1377 45.7147 20.4335 45.3353 20.4335ZM45.3353 20.3216C45.6436 20.3216 45.836 20.0685 45.836 19.7462C45.836 19.4265 45.6436 19.1761 45.3353 19.1761C45.0243 19.1761 44.8293 19.4265 44.8293 19.7489C44.8293 20.0685 45.0271 20.3216 45.3353 20.3216Z" fill="white"/>
<path d="M47.2627 20.4414L46.6882 19.1015V19.0962H46.82L47.2969 20.2443L47.7766 19.0962H47.9057V19.1015L47.3286 20.4414H47.2627Z" fill="white"/>
<path d="M48.5713 20.4335C48.213 20.4335 47.9943 20.1458 47.9943 19.7569C47.9943 19.3599 48.2209 19.0642 48.5819 19.0642C48.8085 19.0642 48.9719 19.1707 49.0667 19.3733H49.0799C49.0773 19.2746 49.0773 19.2054 49.0773 19.0962H49.1984V20.4041H49.0773C49.0773 20.2976 49.0773 20.2257 49.0799 20.1244L49.0667 20.1218C48.9692 20.3242 48.7953 20.4335 48.5713 20.4335ZM48.5898 20.3242C48.898 20.3242 49.0904 20.0924 49.0904 19.7515C49.0904 19.4105 48.898 19.1788 48.5898 19.1788C48.292 19.1788 48.1154 19.4265 48.1154 19.7569C48.1154 20.0818 48.2946 20.3242 48.5898 20.3242Z" fill="white"/>
<path d="M49.5734 20.404V19.0961H49.6946C49.6946 19.1946 49.6946 19.2638 49.692 19.3597H49.7025C49.7842 19.1813 49.9318 19.0828 50.1347 19.0828C50.1637 19.0828 50.1821 19.0828 50.2137 19.088L50.2111 19.1972C50.1768 19.1946 50.1557 19.1946 50.1242 19.1946C49.8501 19.1946 49.6946 19.3891 49.6946 19.6475V20.404H49.5734Z" fill="white"/>
<path d="M50.8777 20.4335C50.5061 20.4335 50.2717 20.1458 50.2717 19.7462C50.2717 19.3519 50.5115 19.0642 50.8777 19.0642C51.2493 19.0642 51.4416 19.3359 51.4416 19.7142C51.4416 19.7275 51.4416 19.7382 51.4416 19.7541H50.3902C50.3928 20.0791 50.5747 20.3216 50.8777 20.3216C51.078 20.3216 51.2176 20.2336 51.3125 20.0578L51.4126 20.1111C51.2967 20.3296 51.1201 20.4335 50.8777 20.4335ZM50.3955 19.6476H51.323C51.3045 19.3705 51.1571 19.1761 50.8777 19.1761C50.6037 19.1761 50.4297 19.3705 50.3955 19.6476Z" fill="white"/>
<path d="M51.7272 20.9661V19.0961H51.8485V20.9661H51.7272ZM51.7878 18.875C51.7246 18.875 51.6798 18.8297 51.6798 18.7657C51.6798 18.7045 51.7246 18.6592 51.7878 18.6592C51.8511 18.6592 51.8959 18.7045 51.8959 18.7657C51.8959 18.8297 51.8511 18.875 51.7878 18.875Z" fill="white"/>
<path d="M52.7773 20.4335C52.3978 20.4335 52.1501 20.1377 52.1501 19.7489C52.1501 19.3572 52.3952 19.0642 52.7773 19.0642C53.1567 19.0642 53.3992 19.3572 53.3992 19.7462C53.3992 20.1377 53.1567 20.4335 52.7773 20.4335ZM52.7773 20.3216C53.0855 20.3216 53.2779 20.0685 53.2779 19.7462C53.2779 19.4265 53.0855 19.1761 52.7773 19.1761C52.4664 19.1761 52.2713 19.4265 52.2713 19.7489C52.2713 20.0685 52.469 20.3216 52.7773 20.3216Z" fill="white"/>
</g>
<defs>
<clipPath id="clip0_78_1178">
<rect width="77" height="21" fill="white"/>
</clipPath>
</defs>
</svg>
